<svg width="148" height="47" viewBox="0 0 148 47" fill="none" xmlns="http://www.w3.org/2000/svg">
<path d="M137.917 30.618C137.276 30.9786 136.765 31.5324 136.457 32.2002C136.15 32.8681 136.063 33.6158 136.207 34.3363C136.351 35.0569 136.72 35.7134 137.261 36.212C137.802 36.7106 138.488 37.0257 139.219 37.1122C141.349 37.5845 145.135 34.8688 143.656 39.3557C142.887 41.7172 140.284 41.8943 138.154 42.0714C127.682 43.0751 116.854 34.9278 107.92 30.559C113.068 27.5481 119.754 24.1239 121.706 18.161C122.395 15.6999 122.413 13.0999 121.758 10.6296C121.102 8.15935 119.798 5.90857 117.979 4.10998C116.132 1.96643 113.575 0.555174 110.774 0.132662C107.973 -0.289851 105.113 0.304426 102.714 1.8075C101.599 2.6965 100.765 3.88865 100.313 5.24006C99.8619 6.59146 99.812 8.04436 100.17 9.4234C101.176 13.3789 103.128 14.3826 106.856 14.6187C106.56 12.1392 105.199 7.7113 107.565 5.82208C108.664 5.21835 109.927 4.97877 111.171 5.13795C112.416 5.29713 113.577 5.84683 114.488 6.70765C119.872 11.1945 116.973 18.161 112.24 21.7033C109.757 23.4143 107.022 24.7289 104.134 25.5998C100.347 26.8987 98.8682 25.5998 95.2 24.301C87.6672 20.9351 79.8707 18.1905 71.8889 16.0947C63.7934 13.9344 55.4079 13.0578 47.0395 13.497C40.3633 14.2825 33.9409 16.5194 28.225 20.0502C22.4708 23.4316 15.9108 25.2058 9.23298 25.1866C7.04387 25.1866 -0.174279 25.1866 0.00321672 27.7252C0.180712 30.2638 8.75966 28.1975 10.298 30.9132C8.87799 31.3265 5.03226 32.6253 6.39306 35.1049C7.75385 37.5845 11.4813 35.1049 12.3096 34.0423C13.4737 32.7533 14.9289 31.7597 16.5545 31.1437C18.1802 30.5276 19.9295 30.307 21.6577 30.5C27.5742 30.8542 33.8457 32.4482 39.9397 33.0976C46.0337 33.7471 50.6486 33.7471 56.0326 34.2194C67.1916 35.9507 78.5303 36.2087 89.7568 34.9869C94.4058 33.4322 99.4795 33.7499 103.897 35.8724C108.394 38.0568 112.595 40.8316 117.091 42.957C124.487 46.4993 138.154 49.5693 145.135 43.7245C152.117 37.8797 145.017 25.4227 137.917 30.618ZM27.6334 24.7142C35.4471 19.053 45.1929 16.7173 54.731 18.2201C60.2334 19.3418 65.7357 20.8768 71.1789 22.2937C74.2555 23.1202 77.0954 23.9468 80.3495 25.0094C83.6036 26.0721 87.0944 26.2492 86.7394 29.4373L27.6334 24.7142Z" fill="#DCC7A3"/>
</svg>
